<svg width="32" height="32" viewBox="0 0 32 32" fill="none" xmlns="http://www.w3.org/2000/svg">
<g id="Logo">
<rect width="32" height="32" rx="16" fill="#121212"/>
<g id="logomark">
<g id="Group">
<path id="Vector" d="M16.5935 11.9067C18.9516 13.4946 18.6711 15.9024 18.6562 16.0154C18.6478 17.4733 17.46 18.6568 16 18.6568C15.0896 18.6568 14.285 18.1962 13.806 17.4961C14.0739 18.2761 14.6851 19.2522 16.0424 20.1351C18.3036 20.1123 20.1364 18.2664 20.1364 15.9999C20.1364 13.9207 18.594 12.1955 16.5935 11.9067Z" fill="white"/>
<path id="Vector_2" d="M13.3438 15.9832C13.3528 14.5259 14.5405 13.3431 16 13.3431C16.9484 13.3431 17.7802 13.8442 18.2504 14.594C18.0196 13.7381 17.4273 12.6569 15.9637 11.8645C13.6996 11.8842 11.8638 13.7316 11.8638 16C11.8638 18.1084 13.4498 19.8522 15.4912 20.104C13.0166 18.2728 13.315 16.1527 13.3438 15.9832Z" fill="white"/>
<path id="Vector_3" d="M16 10C12.6863 10 10 12.6863 10 16C10 19.3137 12.6863 22 16 22C19.3137 22 22 19.3137 22 16C22 12.6863 19.3137 10 16 10ZM16 20.4255C13.5598 20.4255 11.5745 18.4402 11.5745 16C11.5745 13.5598 13.56 11.5745 16 11.5745C18.44 11.5745 20.4255 13.5598 20.4255 16C20.4255 18.4402 18.44 20.4255 16 20.4255Z" fill="white"/>
</g>
</g>
</g>
</svg>
