<svg width="194" height="32" viewBox="0 0 194 32" fill="none" xmlns="http://www.w3.org/2000/svg">
<g id="Logo">
<g id="Logo_2">
<path d="M29.5827 5.08491C35.8708 9.31932 35.1229 15.7401 35.0832 16.0413C35.0608 19.9291 31.8932 23.0851 28 23.0851C25.5722 23.0851 23.4267 21.8568 22.1494 19.99C22.8638 22.07 24.4935 24.6728 28.113 27.0273C34.1428 26.9664 39.0304 22.0441 39.0304 16C39.0304 10.4555 34.9174 5.85484 29.5827 5.08491Z" fill="url(#paint0_linear_9646_9957)"/>
<path d="M20.9168 15.9553C20.9407 12.069 24.108 8.91489 28 8.91489C30.5292 8.91489 32.7472 10.2512 34.001 12.2506C33.3856 9.96819 31.8061 7.08511 27.9032 4.97195C21.8656 5.02439 16.97 9.95085 16.97 16C16.97 21.6224 21.1994 26.2724 26.6433 26.944C20.0443 22.0607 20.8401 16.4071 20.9168 15.9553Z" fill="url(#paint1_linear_9646_9957)"/>
<path d="M28 0C19.1634 0 12 7.16337 12 16C12 24.8366 19.1634 32 28 32C36.8366 32 44 24.8366 44 16C44 7.16337 36.8366 0 28 0ZM28 27.8014C21.4928 27.8014 16.1986 22.5072 16.1986 16C16.1986 9.49282 21.4932 4.19855 28 4.19855C34.5068 4.19855 39.8014 9.49282 39.8014 16C39.8014 22.5072 34.5068 27.8014 28 27.8014Z" fill="url(#paint2_linear_9646_9957)"/>
<path d="M65.4261 18.4722V2.99036H60.2832V18.4722C60.2832 19.1796 60.1487 19.845 59.8786 20.4685C59.6091 21.092 59.2403 21.6372 58.7728 22.1047C58.3053 22.5722 57.757 22.941 57.1279 23.2105C56.4983 23.4801 55.8298 23.6151 55.1229 23.6151C54.6672 23.6151 54.2176 23.5553 53.7742 23.4356C53.3307 23.3154 52.9169 23.1415 52.5333 22.9139V28.4521C53.3967 28.668 54.2596 28.7759 55.1229 28.7759C56.5494 28.7759 57.889 28.5063 59.1416 27.9667C60.3942 27.4271 61.4852 26.6932 62.414 25.7638C63.3434 24.835 64.0773 23.744 64.6169 22.4914C65.1566 21.2388 65.4261 19.8992 65.4261 18.4722Z" fill="#1C1C1C"/>
<path d="M94.6554 15.991C94.6554 14.7681 94.4963 13.5876 94.1787 12.4486C93.8611 11.31 93.4146 10.2487 92.8392 9.26565C92.2637 8.28311 91.5687 7.38394 90.7534 6.56864C89.9381 5.75335 89.0389 5.05826 88.0564 4.48285C87.0733 3.90744 86.0125 3.46092 84.8734 3.14329C83.7344 2.82566 82.5539 2.66659 81.331 2.66659C80.1085 2.66659 78.9306 2.82566 77.7977 3.14329C76.6648 3.46092 75.604 3.90744 74.6148 4.48285C73.6261 5.05826 72.7238 5.75335 71.9085 6.56864C71.0938 7.38394 70.3951 8.28311 69.8141 9.26565C69.2325 10.2487 68.7829 11.31 68.4653 12.4486C68.1477 13.5876 67.9886 14.7681 67.9886 15.991C67.9886 17.214 68.1477 18.3914 68.4653 19.5243C68.7829 20.6572 69.2325 21.718 69.8141 22.7072C70.3951 23.6959 71.0938 24.5982 71.9085 25.4135C72.7238 26.2287 73.6261 26.9269 74.6148 27.5079C75.604 28.0895 76.6648 28.5391 77.7977 28.8567C78.9306 29.1743 80.1085 29.3334 81.331 29.3334C82.5539 29.3334 83.7344 29.1743 84.8734 28.8567C86.0125 28.5391 87.0733 28.0895 88.0564 27.5079C89.0389 26.9269 89.9381 26.2287 90.7534 25.4135C91.5687 24.5982 92.2637 23.6959 92.8392 22.7072C93.4146 21.718 93.8611 20.6572 94.1787 19.5243C94.4963 18.3914 94.6554 17.214 94.6554 15.991ZM89.5304 15.991C89.5304 17.1178 89.3151 18.1756 88.8834 19.1648C88.4517 20.1539 87.8671 21.0199 87.1301 21.7631C86.393 22.5062 85.5235 23.0939 84.5226 23.5251C83.5216 23.9568 82.4577 24.1726 81.331 24.1726C80.1924 24.1726 79.1255 23.9568 78.1301 23.5251C77.1353 23.0939 76.2663 22.5062 75.5231 21.7631C74.78 21.0199 74.1923 20.1539 73.7606 19.1648C73.3294 18.1756 73.1136 17.1178 73.1136 15.991C73.1136 14.8643 73.3294 13.8004 73.7606 12.7994C74.1923 11.7985 74.78 10.929 75.5231 10.1919C76.2663 9.4549 77.1353 8.87028 78.1301 8.4386C79.1255 8.00742 80.1924 7.79158 81.331 7.79158C82.4577 7.79158 83.5216 8.00742 84.5226 8.4386C85.5235 8.87028 86.393 9.4549 87.1301 10.1919C87.8671 10.929 88.4517 11.7985 88.8834 12.7994C89.3151 13.8004 89.5304 14.8643 89.5304 15.991Z" fill="#1C1C1C"/>
<path d="M115.559 28.7759V23.6151H102.666V2.99036H97.5059V28.7759H115.559Z" fill="#1C1C1C"/>
<path d="M135.762 28.7759V23.6151H122.869V2.99036H117.708V28.7759H135.762Z" fill="#1C1C1C"/>
<path d="M146.2 28.7759V20.7023C147.339 20.4143 148.382 19.9529 149.329 19.3177C150.276 18.6824 151.091 17.9239 151.774 17.0432C152.458 16.1619 152.988 15.185 153.366 14.1119C153.743 13.0388 153.932 11.909 153.932 10.7223V2.99036H148.789V10.7223C148.789 11.4297 148.654 12.0982 148.385 12.7273C148.115 13.3569 147.747 13.9053 147.279 14.3727C146.812 14.8402 146.263 15.209 145.634 15.4786C145.004 15.7481 144.336 15.8831 143.629 15.8831C142.921 15.8831 142.253 15.7481 141.624 15.4786C140.995 15.209 140.446 14.8402 139.978 14.3727C139.511 13.9053 139.142 13.3569 138.872 12.7273C138.603 12.0982 138.468 11.4297 138.468 10.7223V2.99036H133.307V10.7223C133.307 11.909 133.496 13.0388 133.874 14.1119C134.251 15.185 134.782 16.1619 135.465 17.0432C136.148 17.9239 136.967 18.6824 137.92 19.3177C138.872 19.9529 139.918 20.4143 141.058 20.7023V28.7759H146.2Z" fill="#1C1C1C"/>
</g>
</g>
<defs>
<linearGradient id="paint0_linear_9646_9957" x1="69.3246" y1="-8.29172" x2="42.5067" y2="45.6315" gradientUnits="userSpaceOnUse">
<stop stop-color="#000AFF"/>
<stop offset="1" stop-color="#00D1FF"/>
</linearGradient>
<linearGradient id="paint1_linear_9646_9957" x1="69.3246" y1="-8.29172" x2="42.5067" y2="45.6315" gradientUnits="userSpaceOnUse">
<stop stop-color="#000AFF"/>
<stop offset="1" stop-color="#00D1FF"/>
</linearGradient>
<linearGradient id="paint2_linear_9646_9957" x1="69.3246" y1="-8.29172" x2="42.5067" y2="45.6315" gradientUnits="userSpaceOnUse">
<stop stop-color="#000AFF"/>
<stop offset="1" stop-color="#00D1FF"/>
</linearGradient>
</defs>
</svg>
