<svg width="14" height="10" viewBox="0 0 14 10" fill="none" xmlns="http://www.w3.org/2000/svg">
<g id="Group">
<path id="Vector" d="M8.49998 9.66665H9.49998C11.0446 9.66332 11.872 9.62532 12.4813 9.21732C12.7725 9.02291 13.0226 8.77304 13.2173 8.48199C13.6666 7.80865 13.6666 6.87265 13.6666 4.99998C13.6666 3.12732 13.6666 2.19132 13.2173 1.51865C13.0226 1.22762 12.7725 0.977757 12.4813 0.783318C11.8713 0.375318 11.0446 0.337318 9.49998 0.333984H8.49998V2.99998H8.99998C9.53041 2.99998 10.0391 3.2107 10.4142 3.58577C10.7893 3.96084 11 4.46955 11 4.99998C11 5.53042 10.7893 6.03913 10.4142 6.4142C10.0391 6.78927 9.53041 6.99998 8.99998 6.99998H8.49998V9.66665ZM5.49998 9.66665V6.99998H4.99998C4.46955 6.99998 3.96084 6.78927 3.58577 6.4142C3.21069 6.03913 2.99998 5.53042 2.99998 4.99998C2.99998 4.46955 3.21069 3.96084 3.58577 3.58577C3.96084 3.2107 4.46955 2.99998 4.99998 2.99998H5.49998V0.333984H4.49998C2.95531 0.337318 2.12865 0.375318 1.51865 0.783318C1.22741 0.97773 0.977322 1.2276 0.782646 1.51865C0.333313 2.19132 0.333313 3.12798 0.333313 4.99998C0.333313 6.87332 0.333313 7.80932 0.782646 8.48199C0.977322 8.77304 1.22741 9.02291 1.51865 9.21732C2.12865 9.62532 2.95531 9.66332 4.49998 9.66665H5.49998Z" fill="#C7C7CC"/>
<path id="Vector_2" opacity="0.5" d="M5.5 9.66658H8.5V0.333252H5.5V9.66658Z" fill="#C7C7CC"/>
</g>
</svg>
