<svg width="18" height="18" viewBox="0 0 16 16" fill="none" xmlns="http://www.w3.org/2000/svg">
<g id="mdi:court-hammer">
<path id="Vector" d="M1.53332 13.5201L7.93332 7.1201L6.99998 6.17343L6.51998 6.64677C6.45831 6.70857 6.38505 6.7576 6.3044 6.79105C6.22375 6.82451 6.1373 6.84173 6.04998 6.84173C5.96267 6.84173 5.87622 6.82451 5.79557 6.79105C5.71492 6.7576 5.64166 6.70857 5.57998 6.64677L5.10665 6.17343C5.04485 6.11176 4.99582 6.0385 4.96236 5.95785C4.92891 5.8772 4.91169 5.79075 4.91169 5.70343C4.91169 5.61612 4.92891 5.52967 4.96236 5.44902C4.99582 5.36837 5.04485 5.29511 5.10665 5.23343L8.87998 1.4601C8.94166 1.3983 9.01492 1.34927 9.09557 1.31581C9.17622 1.28236 9.26267 1.26514 9.34999 1.26514C9.4373 1.26514 9.52375 1.28236 9.6044 1.31581C9.68505 1.34927 9.75831 1.3983 9.81998 1.4601L10.2933 1.93343C10.5533 2.19343 10.5533 2.61343 10.2933 2.87343L9.81998 3.33343L10.7667 4.28677C10.8283 4.22496 10.9016 4.17593 10.9822 4.14248C11.0629 4.10902 11.1493 4.0918 11.2367 4.0918C11.324 4.0918 11.4104 4.10902 11.4911 4.14248C11.5717 4.17593 11.645 4.22496 11.7067 4.28677C11.9667 4.54677 11.9667 4.97343 11.7067 5.23343L12.6467 6.17343L13.12 5.7001C13.38 5.4401 13.8067 5.4401 14.0667 5.7001L14.5333 6.17343C14.7933 6.43343 14.7933 6.8601 14.5333 7.1201L10.7667 10.8868C10.5067 11.1468 10.08 11.1468 9.81998 10.8868L9.35332 10.4201C9.29002 10.3586 9.2397 10.285 9.20534 10.2037C9.17097 10.1224 9.15327 10.035 9.15327 9.94677C9.15327 9.8585 9.17097 9.77113 9.20534 9.68983C9.2397 9.60853 9.29002 9.53494 9.35332 9.47343L9.81998 9.0001L8.87998 8.0601L2.47332 14.4668C2.41164 14.5286 2.33838 14.5776 2.25773 14.6111C2.17709 14.6445 2.09063 14.6617 2.00332 14.6617C1.91601 14.6617 1.82955 14.6445 1.7489 14.6111C1.66825 14.5776 1.59499 14.5286 1.53332 14.4668C1.27332 14.2068 1.27332 13.7801 1.53332 13.5201ZM13.3333 12.6668C13.6869 12.6668 14.0261 12.8072 14.2761 13.0573C14.5262 13.3073 14.6667 13.6465 14.6667 14.0001V14.6668H7.99998V14.0001C7.99998 13.6465 8.14046 13.3073 8.39051 13.0573C8.64056 12.8072 8.9797 12.6668 9.33332 12.6668H13.3333Z" fill="#C7C7CC"/>
</g>
</svg>
