<svg width="10" height="10" viewBox="0 0 10 10" fill="none" xmlns="http://www.w3.org/2000/svg">
<g id="Hicon / Linear / Sun 2" clip-path="url(#clip0_9646_15038)">
<g id="Sun 1">
<g id="Vector">
<path d="M7.49999 5.00008C7.49999 6.38079 6.3807 7.50008 4.99999 7.50008C3.61928 7.50008 2.49999 6.38079 2.49999 5.00008C2.49999 3.61937 3.61928 2.50008 4.99999 2.50008C6.3807 2.50008 7.49999 3.61937 7.49999 5.00008Z" fill="#222222"/>
<path d="M4.99999 0.416748V1.25008M4.99999 8.75008V9.58341M9.58332 5.00008H8.74999M1.24999 5.00008H0.416656M8.2409 1.75918L7.65164 2.34843M2.34834 7.65173L1.75908 8.24099M8.2409 8.24099L7.65164 7.65173M2.34834 2.34843L1.75908 1.75918M7.49999 5.00008C7.49999 6.38079 6.3807 7.50008 4.99999 7.50008C3.61928 7.50008 2.49999 6.38079 2.49999 5.00008C2.49999 3.61937 3.61928 2.50008 4.99999 2.50008C6.3807 2.50008 7.49999 3.61937 7.49999 5.00008Z" stroke="#222222" stroke-width="0.5" stroke-linecap="round"/>
</g>
</g>
</g>
<defs>
<clipPath id="clip0_9646_15038">
<rect width="10" height="10" fill="white"/>
</clipPath>
</defs>
</svg>
