<svg width="24" height="24" viewBox="0 0 24 24" fill="none" xmlns="http://www.w3.org/2000/svg">
<g id="Type=Task, Dark mode=off">
<g id="Document Justify Right 2">
<path id="Vector" d="M6.64886 19.2361L7.0897 18.6293L6.64886 19.2361ZM5.76393 18.3511L6.37069 17.9103L5.76393 18.3511ZM18.6361 18.3511L18.0293 17.9103L18.6361 18.3511ZM17.7511 19.2361L17.3103 18.6293L17.7511 19.2361ZM17.7511 4.76393L17.3103 5.37069L17.7511 4.76393ZM18.6361 5.64886L18.0293 6.0897L18.6361 5.64886ZM6.64886 4.76393L7.0897 5.37069L6.64886 4.76393ZM5.76393 5.64886L6.37069 6.0897L5.76393 5.64886ZM9 8.05C8.58579 8.05 8.25 8.38579 8.25 8.8C8.25 9.21421 8.58579 9.55 9 9.55V8.05ZM15.4 9.55C15.8142 9.55 16.15 9.21421 16.15 8.8C16.15 8.38579 15.8142 8.05 15.4 8.05V9.55ZM9 11.25C8.58579 11.25 8.25 11.5858 8.25 12C8.25 12.4142 8.58579 12.75 9 12.75V11.25ZM15.4 12.75C15.8142 12.75 16.15 12.4142 16.15 12C16.15 11.5858 15.8142 11.25 15.4 11.25V12.75ZM13 14.45C12.5858 14.45 12.25 14.7858 12.25 15.2C12.25 15.6142 12.5858 15.95 13 15.95V14.45ZM15.4 15.95C15.8142 15.95 16.15 15.6142 16.15 15.2C16.15 14.7858 15.8142 14.45 15.4 14.45V15.95ZM18.65 11.2V12.8H20.15V11.2H18.65ZM5.75 12.8V11.2H4.25V12.8H5.75ZM12.2 19.25C10.6834 19.25 9.6062 19.249 8.77459 19.1589C7.95703 19.0703 7.46627 18.9029 7.0897 18.6293L6.20802 19.8428C6.88291 20.3332 7.66783 20.5477 8.61302 20.6501C9.54418 20.751 10.7168 20.75 12.2 20.75V19.25ZM4.25 12.8C4.25 14.2832 4.24897 15.4558 4.34985 16.387C4.45226 17.3322 4.66683 18.1171 5.15717 18.792L6.37069 17.9103C6.0971 17.5337 5.92971 17.043 5.84113 16.2254C5.75103 15.3938 5.75 14.3166 5.75 12.8H4.25ZM7.0897 18.6293C6.81379 18.4288 6.57115 18.1862 6.37069 17.9103L5.15717 18.792C5.45015 19.1952 5.80477 19.5499 6.20802 19.8428L7.0897 18.6293ZM18.65 12.8C18.65 14.3166 18.649 15.3938 18.5589 16.2254C18.4703 17.043 18.3029 17.5337 18.0293 17.9103L19.2428 18.792C19.7332 18.1171 19.9477 17.3322 20.0501 16.387C20.151 15.4558 20.15 14.2832 20.15 12.8H18.65ZM12.2 20.75C13.6832 20.75 14.8558 20.751 15.787 20.6501C16.7322 20.5477 17.5171 20.3332 18.192 19.8428L17.3103 18.6293C16.9337 18.9029 16.443 19.0703 15.6254 19.1589C14.7938 19.249 13.7166 19.25 12.2 19.25V20.75ZM18.0293 17.9103C17.8288 18.1862 17.5862 18.4288 17.3103 18.6293L18.192 19.8428C18.5952 19.5499 18.9499 19.1952 19.2428 18.792L18.0293 17.9103ZM12.2 4.75C13.7166 4.75 14.7938 4.75103 15.6254 4.84113C16.443 4.92971 16.9337 5.0971 17.3103 5.37069L18.192 4.15717C17.5171 3.66683 16.7322 3.45226 15.787 3.34985C14.8558 3.24897 13.6832 3.25 12.2 3.25V4.75ZM20.15 11.2C20.15 9.71681 20.151 8.54418 20.0501 7.61302C19.9477 6.66783 19.7332 5.88291 19.2428 5.20802L18.0293 6.0897C18.3029 6.46627 18.4703 6.95703 18.5589 7.77459C18.649 8.6062 18.65 9.6834 18.65 11.2H20.15ZM17.3103 5.37069C17.5862 5.57115 17.8288 5.81379 18.0293 6.0897L19.2428 5.20802C18.9499 4.80477 18.5952 4.45015 18.192 4.15717L17.3103 5.37069ZM12.2 3.25C10.7168 3.25 9.54418 3.24897 8.61302 3.34985C7.66783 3.45226 6.88291 3.66683 6.20802 4.15717L7.0897 5.37069C7.46627 5.0971 7.95703 4.92971 8.77459 4.84113C9.6062 4.75103 10.6834 4.75 12.2 4.75V3.25ZM5.75 11.2C5.75 9.6834 5.75103 8.6062 5.84113 7.77459C5.92971 6.95703 6.0971 6.46627 6.37069 6.0897L5.15717 5.20802C4.66683 5.88291 4.45226 6.66783 4.34985 7.61302C4.24897 8.54418 4.25 9.71681 4.25 11.2H5.75ZM6.20802 4.15717C5.80477 4.45015 5.45015 4.80477 5.15717 5.20802L6.37069 6.0897C6.57115 5.81379 6.81379 5.57115 7.0897 5.37069L6.20802 4.15717ZM9 9.55H15.4V8.05H9V9.55ZM9 12.75H15.4V11.25H9V12.75ZM13 15.95H15.4V14.45H13V15.95Z" fill="#48484A"/>
</g>
</g>
</svg>
