<svg width="24" height="24" viewBox="0 0 24 24" fill="none" xmlns="http://www.w3.org/2000/svg">
<g id="Type=Spec, Dark mode=off">
<g id="Document Align Left 17">
<path id="Vector" d="M17.9743 8.75075L17.8569 9.49152L17.9743 8.75075ZM14.6492 5.42574L13.9085 5.54306V5.54306L14.6492 5.42574ZM6.64886 19.2361L7.0897 18.6293L6.64886 19.2361ZM5.76393 18.3511L6.37069 17.9103L5.76393 18.3511ZM18.6361 18.3511L18.0293 17.9103L18.6361 18.3511ZM17.7511 19.2361L17.3103 18.6293L17.7511 19.2361ZM17.7511 4.76393L18.192 4.15717L17.7511 4.76393ZM18.6361 5.64886L19.2428 5.20802L18.6361 5.64886ZM6.64886 4.76393L7.0897 5.37069L6.64886 4.76393ZM5.76393 5.64886L6.37069 6.0897L5.76393 5.64886ZM14.6 4.02314L14.6257 3.27358L14.6 4.02314ZM19.3769 8.8L20.1264 8.77432L19.3769 8.8ZM9 12.85C8.58579 12.85 8.25 13.1858 8.25 13.6C8.25 14.0142 8.58579 14.35 9 14.35V12.85ZM15.4 14.35C15.8142 14.35 16.15 14.0142 16.15 13.6C16.15 13.1858 15.8142 12.85 15.4 12.85V14.35ZM9 9.65C8.58579 9.65 8.25 9.98579 8.25 10.4C8.25 10.8142 8.58579 11.15 9 11.15V9.65ZM11.4 11.15C11.8142 11.15 12.15 10.8142 12.15 10.4C12.15 9.98579 11.8142 9.65 11.4 9.65V11.15ZM18.0916 8.00999C16.7009 7.78973 15.6103 6.69906 15.39 5.30841L13.9085 5.54306C14.2304 7.57555 15.8244 9.1696 17.8569 9.49152L18.0916 8.00999ZM18.65 11.2V12.8H20.15V11.2H18.65ZM5.75 12.8V11.2H4.25V12.8H5.75ZM12.2 19.25C10.6834 19.25 9.6062 19.249 8.77459 19.1589C7.95703 19.0703 7.46627 18.9029 7.0897 18.6293L6.20802 19.8428C6.88291 20.3332 7.66783 20.5477 8.61302 20.6501C9.54418 20.751 10.7168 20.75 12.2 20.75V19.25ZM4.25 12.8C4.25 14.2832 4.24897 15.4558 4.34985 16.387C4.45226 17.3322 4.66683 18.1171 5.15717 18.792L6.37069 17.9103C6.0971 17.5337 5.92971 17.043 5.84113 16.2254C5.75103 15.3938 5.75 14.3166 5.75 12.8H4.25ZM7.0897 18.6293C6.81379 18.4288 6.57115 18.1862 6.37069 17.9103L5.15717 18.792C5.45015 19.1952 5.80477 19.5499 6.20802 19.8428L7.0897 18.6293ZM18.65 12.8C18.65 14.3166 18.649 15.3938 18.5589 16.2254C18.4703 17.043 18.3029 17.5337 18.0293 17.9103L19.2428 18.792C19.7332 18.1171 19.9477 17.3322 20.0501 16.387C20.151 15.4558 20.15 14.2832 20.15 12.8H18.65ZM12.2 20.75C13.6832 20.75 14.8558 20.751 15.787 20.6501C16.7322 20.5477 17.5171 20.3332 18.192 19.8428L17.3103 18.6293C16.9337 18.9029 16.443 19.0703 15.6254 19.1589C14.7938 19.249 13.7166 19.25 12.2 19.25V20.75ZM18.0293 17.9103C17.8288 18.1862 17.5862 18.4288 17.3103 18.6293L18.192 19.8428C18.5952 19.5499 18.9499 19.1952 19.2428 18.792L18.0293 17.9103ZM17.3103 5.37069C17.5862 5.57115 17.8288 5.81379 18.0293 6.0897L19.2428 5.20802C18.9499 4.80477 18.5952 4.45015 18.192 4.15717L17.3103 5.37069ZM12.2 3.25C10.7168 3.25 9.54418 3.24897 8.61302 3.34985C7.66783 3.45226 6.88291 3.66683 6.20802 4.15717L7.0897 5.37069C7.46627 5.0971 7.95703 4.92971 8.77459 4.84113C9.6062 4.75103 10.6834 4.75 12.2 4.75V3.25ZM5.75 11.2C5.75 9.6834 5.75103 8.6062 5.84113 7.77459C5.92971 6.95703 6.0971 6.46627 6.37069 6.0897L5.15717 5.20802C4.66683 5.88291 4.45226 6.66783 4.34985 7.61302C4.24897 8.54418 4.25 9.71681 4.25 11.2H5.75ZM6.20802 4.15717C5.80477 4.45015 5.45015 4.80477 5.15717 5.20802L6.37069 6.0897C6.57115 5.81379 6.81379 5.57115 7.0897 5.37069L6.20802 4.15717ZM12.2 4.75C13.1393 4.75 13.9144 4.75009 14.5743 4.7727L14.6257 3.27358C13.9346 3.24991 13.131 3.25 12.2 3.25V4.75ZM14.5743 4.7727C16.0564 4.82348 16.7857 4.98953 17.3103 5.37069L18.192 4.15717C17.2692 3.48676 16.1263 3.325 14.6257 3.27358L14.5743 4.7727ZM13.85 4.02315C13.85 4.72347 13.8482 5.16263 13.9085 5.54306L15.39 5.30841C15.3528 5.07347 15.35 4.77844 15.35 4.02314L13.85 4.02315ZM20.15 11.2C20.15 10.269 20.1501 9.46537 20.1264 8.77432L18.6273 8.82568C18.6499 9.48558 18.65 10.2607 18.65 11.2H20.15ZM20.1264 8.77432C20.075 7.27371 19.9132 6.13076 19.2428 5.20802L18.0293 6.0897C18.4105 6.61433 18.5765 7.34359 18.6273 8.82568L20.1264 8.77432ZM19.3769 8.05C18.6216 8.04999 18.3265 8.0472 18.0916 8.00999L17.8569 9.49152C18.2374 9.55177 18.6765 9.54999 19.3769 9.55L19.3769 8.05ZM9 14.35H15.4V12.85H9V14.35ZM9 11.15H11.4V9.65H9V11.15Z" fill="#48484A"/>
</g>
</g>
</svg>
